<svg width="126" height="40" viewBox="0 0 126 40" fill="none" xmlns="http://www.w3.org/2000/svg">
<path d="M66.1784 10.1306C66.1789 10.464 66.1136 10.7943 65.9861 11.1025C65.8587 11.4107 65.6717 11.6907 65.4358 11.9264C65.1999 12.1621 64.9197 12.3489 64.6115 12.4761C64.3032 12.6033 63.9728 12.6684 63.6394 12.6676C63.3058 12.6684 62.9754 12.6033 62.6672 12.476C62.3589 12.3487 62.0788 12.1618 61.8429 11.926C61.6071 11.6901 61.4202 11.41 61.2929 11.1018C61.1657 10.7935 61.1006 10.4631 61.1013 10.1296C61.0975 9.79524 61.1605 9.46351 61.2866 9.15388C61.4128 8.84426 61.5996 8.56299 61.8361 8.32661C62.0726 8.09024 62.3539 7.90353 62.6636 7.77747C62.9733 7.65141 63.305 7.58854 63.6394 7.59257C65.0854 7.63157 66.1784 8.76357 66.1784 10.1296V10.1306ZM55.7123 15.2446V15.8686C55.7123 15.8686 54.5023 14.3066 51.9254 14.3066C47.6693 14.3066 44.3493 17.5466 44.3493 22.0366C44.3493 26.4866 47.6293 29.7666 51.9254 29.7666C54.5414 29.7666 55.7123 28.1656 55.7123 28.1656V28.8286C55.7123 29.1416 55.9473 29.3746 56.2593 29.3746H59.4224V14.6956H56.2593C56.1151 14.6991 55.9777 14.7582 55.8758 14.8604C55.7739 14.9627 55.7154 15.1003 55.7123 15.2446ZM55.7123 24.6516C55.1273 25.5116 53.9553 26.2526 52.5504 26.2526C50.0504 26.2526 48.1374 24.6916 48.1374 22.0366C48.1374 19.3816 50.0513 17.8206 52.5504 17.8206C53.9174 17.8206 55.1663 18.6006 55.7123 19.4206V24.6516ZM61.7654 14.6976H65.5144V29.3756H61.7654V14.6976ZM117.763 14.3066C115.185 14.3066 113.975 15.8686 113.975 15.8686V7.63157H110.226V29.3756H113.389C113.533 29.3728 113.671 29.3144 113.773 29.2126C113.875 29.1108 113.933 28.9736 113.936 28.8296V28.1656C113.936 28.1656 115.146 29.7656 117.723 29.7656C121.98 29.7656 125.299 26.4886 125.299 22.0376C125.299 17.5876 121.98 14.3066 117.763 14.3066ZM117.138 26.2136C115.693 26.2136 114.561 25.4726 113.975 24.6136V19.3806C114.561 18.6006 115.81 17.7806 117.138 17.7806C119.637 17.7806 121.55 19.3416 121.55 21.9966C121.55 24.6506 119.637 26.2136 117.138 26.2136ZM108.274 20.6706V29.4146H104.524V21.1006C104.524 18.6806 103.744 17.7046 101.636 17.7046C100.504 17.7046 99.3324 18.2896 98.5894 19.1496V29.3776H94.8414V14.6976H97.8084C98.1214 14.6976 98.3554 14.9716 98.3554 15.2456V15.8696C99.4494 14.7376 100.893 14.3076 102.338 14.3076C103.978 14.3076 105.345 14.7776 106.438 15.7136C107.766 16.8066 108.274 18.2106 108.274 20.6706ZM85.7414 14.3066C83.1654 14.3066 81.9544 15.8686 81.9544 15.8686V7.63157H78.2054V29.3756H81.3684C81.5123 29.3725 81.6495 29.314 81.7514 29.2123C81.8533 29.1106 81.912 28.9735 81.9154 28.8296V28.1656C81.9154 28.1656 83.1254 29.7656 85.7024 29.7656C89.9594 29.7656 93.2784 26.4886 93.2784 22.0376C93.3184 17.5866 89.9984 14.3066 85.7414 14.3066ZM85.1164 26.2136C83.6724 26.2136 82.5404 25.4726 81.9544 24.6136V19.3806C82.5404 18.6006 83.7894 17.7806 85.1164 17.7806C87.6164 17.7806 89.5294 19.3416 89.5294 21.9966C89.5294 24.6506 87.6164 26.2136 85.1164 26.2136ZM74.9644 14.3066C76.0964 14.3066 76.6824 14.5026 76.6824 14.5026V17.9766C76.6824 17.9766 73.5584 16.9216 71.6064 19.1476V29.4146H67.8564V14.6976H71.0204C71.3324 14.6976 71.5664 14.9706 71.5664 15.2436V15.8686C72.2704 15.0486 73.7934 14.3066 74.9644 14.3066ZM36.0324 28.0486C35.8374 27.5806 35.6423 27.0726 35.4464 26.6426C35.1334 25.9406 34.8214 25.2766 34.5484 24.6526L34.5093 24.6126C31.7751 18.6627 28.8976 12.7796 25.8794 6.96857L25.7624 6.73357C25.4424 6.12557 25.1294 5.51357 24.8254 4.89857C24.4354 4.19557 24.0454 3.45457 23.4194 2.75157C22.1694 1.18957 20.3734 0.330566 18.4604 0.330566C16.5074 0.330566 14.7504 1.19057 13.4624 2.67257C12.8764 3.37557 12.4464 4.11657 12.0564 4.82057C11.7518 5.436 11.4398 6.04772 11.1204 6.65557L11.0024 6.88957C7.99535 12.7456 5.06735 18.6796 2.37235 24.5346L2.33235 24.6126C2.06035 25.2376 1.74735 25.9016 1.43435 26.6026C1.23935 27.0326 1.04435 27.5016 0.849352 28.0086C0.341352 29.4526 0.185352 30.8186 0.381352 32.2256C0.590591 33.6539 1.16889 35.003 2.05911 36.1394C2.94932 37.2759 4.12065 38.1604 5.45735 38.7056C6.47335 39.1356 7.52735 39.3306 8.62035 39.3306C8.93335 39.3306 9.32335 39.2916 9.63635 39.2526C10.9244 39.0966 12.2524 38.6676 13.5414 37.9256C15.1414 37.0276 16.6654 35.7396 18.3834 33.8656C20.1014 35.7396 21.6634 37.0276 23.2254 37.9256C24.5154 38.6676 25.8414 39.0956 27.1304 39.2526C27.4424 39.2926 27.8334 39.3306 28.1464 39.3306C29.2394 39.3306 30.3324 39.1356 31.3084 38.7056C34.0424 37.6116 35.9553 35.1146 36.3853 32.2256C36.6954 30.8596 36.5394 29.4936 36.0324 28.0486ZM18.4214 30.0786C16.3114 27.4236 14.9454 24.9256 14.4774 22.8186C14.2824 21.9196 14.2424 21.1386 14.3604 20.4366C14.4371 19.8484 14.6512 19.2866 14.9854 18.7966C15.7274 17.7426 16.9764 17.0786 18.4214 17.0786C19.8664 17.0786 21.1554 17.7036 21.8584 18.7966C22.1704 19.2646 22.4054 19.8116 22.4834 20.4366C22.6004 21.1396 22.5614 21.9586 22.3664 22.8176C21.8964 24.8866 20.5294 27.3866 18.4214 30.0786ZM34.0014 31.9136C33.8607 32.9193 33.4585 33.8706 32.835 34.6722C32.2115 35.4738 31.3886 36.0977 30.4484 36.4816C29.5114 36.8716 28.4954 36.9886 27.4804 36.8716C26.5044 36.7536 25.5274 36.4416 24.5134 35.8566C23.1074 35.0746 21.7014 33.8656 20.0614 32.0696C22.6384 28.9076 24.2004 26.0186 24.7864 23.4426C25.0407 22.3552 25.1067 21.2322 24.9814 20.1226C24.8368 19.1692 24.4763 18.2614 23.9274 17.4686C22.7154 15.7116 20.6854 14.6976 18.4204 14.6976C16.1564 14.6976 14.1254 15.7516 12.9154 17.4686C12.3661 18.2617 12.0053 19.1698 11.8604 20.1236C11.6954 21.2315 11.7618 22.3616 12.0554 23.4426C12.6414 26.0186 14.2424 28.9466 16.7804 32.1086C15.1794 33.9046 13.7344 35.1146 12.3284 35.8956C11.3134 36.4816 10.3374 36.7936 9.36135 36.9106C8.35503 37.0229 7.33649 36.8891 6.39335 36.5206C5.45315 36.1367 4.63017 35.5128 4.00667 34.7112C3.38317 33.9096 2.981 32.9583 2.84035 31.9526C2.71125 30.9241 2.83164 29.8797 3.19135 28.9076C3.30835 28.5176 3.50435 28.1276 3.69935 27.6576C3.97235 27.0336 4.28435 26.3696 4.59735 25.7066L4.63735 25.6286C7.36632 19.721 10.2304 13.8768 13.2274 8.10057L13.3444 7.86557C13.6574 7.28057 13.9694 6.65557 14.2814 6.07057C14.5944 5.44557 14.9454 4.85957 15.3754 4.35157C16.1954 3.41557 17.2884 2.90757 18.4994 2.90757C19.7094 2.90757 20.8034 3.41557 21.6234 4.35157C22.0534 4.86157 22.4034 5.44657 22.7164 6.07057C23.0294 6.65557 23.3424 7.28057 23.6534 7.86557L23.7714 8.10057C26.7325 13.9018 29.5836 19.7585 32.3233 25.6676V25.7066C32.6353 26.3326 32.9094 27.0346 33.2214 27.6596C33.4164 28.1276 33.6114 28.5176 33.7294 28.9076C34.0404 29.9216 34.1573 30.8986 34.0014 31.9136Z" fill="#4D4D4D"/>
</svg>
