<svg width="110" height="34" viewBox="0 0 110 34" fill="none" xmlns="http://www.w3.org/2000/svg">
<path d="M68.3345 25.9216C62.0415 30.5746 52.8875 33.0536 44.9925 33.0536C33.9325 33.0536 24.0165 28.9736 16.4655 22.1836C15.8935 21.6506 16.3885 20.9256 17.1135 21.3446C25.2375 26.0746 35.2675 28.8966 45.6415 28.8966C52.6215 28.8966 60.3245 27.4466 67.4185 24.4346C68.4865 24.0146 69.3645 25.1586 68.3345 25.9216ZM70.9655 22.9086C70.1655 21.8786 65.6255 22.4126 63.6055 22.6796C62.9945 22.7566 62.8805 22.2226 63.4525 21.8406C67.0755 19.2856 72.9865 20.0486 73.6725 20.8876C74.3595 21.7266 73.4825 27.6766 70.0885 30.4976C69.5545 30.9176 69.0585 30.6896 69.2875 30.1176C70.0505 28.2096 71.7665 23.9776 70.9655 22.9086ZM63.7195 3.91557V1.43657C63.7195 1.05557 63.9865 0.826566 64.3295 0.826566H75.3895C75.7325 0.826566 76.0375 1.09357 76.0375 1.43657V3.53457C76.0375 3.87757 75.7325 4.33457 75.1985 5.09757L69.4785 13.2596C71.6135 13.2216 73.8645 13.5266 75.7715 14.5946C76.1905 14.8236 76.3045 15.2046 76.3435 15.5476V18.1796C76.3435 18.5606 75.9615 18.9796 75.5425 18.7516C72.1475 16.9596 67.6095 16.7686 63.8725 18.7896C63.4905 18.9796 63.0705 18.5996 63.0705 18.2176V15.7006C63.0705 15.3196 63.0705 14.6326 63.4905 14.0226L70.1265 4.52557H64.3675C64.0245 4.52557 63.7195 4.25857 63.7195 3.91557ZM23.4065 19.2856H20.0505C19.7455 19.2476 19.4785 19.0186 19.4405 18.7136V1.47457C19.4405 1.13157 19.7455 0.864566 20.0885 0.864566H23.2155C23.5585 0.864566 23.7875 1.13157 23.8255 1.43657V3.68657H23.9025C24.7025 1.51257 26.2665 0.483566 28.3265 0.483566C30.4235 0.483566 31.7585 1.51357 32.6745 3.68657C33.4745 1.51257 35.3445 0.483566 37.3275 0.483566C38.7375 0.483566 40.2635 1.05557 41.2175 2.38957C42.2855 3.83957 42.0565 5.93657 42.0565 7.80557V18.7136C42.0565 19.0566 41.7515 19.3236 41.4075 19.3236H38.0895C37.7465 19.2856 37.4795 19.0186 37.4795 18.7136V9.56057C37.4795 8.83557 37.5555 7.00457 37.4035 6.31857C37.1365 5.17457 36.4115 4.83057 35.4205 4.83057C34.6195 4.83057 33.7425 5.36457 33.3985 6.24257C33.0555 7.11957 33.0935 8.56857 33.0935 9.56057V18.7136C33.0935 19.0566 32.7885 19.3236 32.4455 19.3236H29.0895C28.7455 19.2856 28.4795 19.0186 28.4795 18.7136V9.56057C28.4795 7.65357 28.7835 4.79257 26.4195 4.79257C24.0165 4.79257 24.0925 7.53857 24.0925 9.56057V18.7136C24.0545 19.0186 23.7875 19.2856 23.4065 19.2856ZM85.5725 0.483566C90.5685 0.483566 93.2765 4.75457 93.2765 10.2086C93.2765 15.4716 90.3015 19.6666 85.5725 19.6666C80.6905 19.6666 78.0215 15.3956 78.0215 10.0566C77.9835 4.67857 80.6915 0.483566 85.5725 0.483566ZM85.5725 4.02957C83.0935 4.02957 82.9415 7.42457 82.9415 9.52157C82.9415 11.6196 82.9025 16.1196 85.5345 16.1196C88.1275 16.1196 88.2805 12.4966 88.2805 10.2846C88.2805 8.83557 88.2045 7.08157 87.7845 5.70857C87.4035 4.48857 86.6405 4.02957 85.5725 4.02957ZM99.7225 19.2856H96.3645C96.0215 19.2476 95.7545 18.9806 95.7545 18.6756V1.39857C95.7757 1.24089 95.8532 1.09618 95.9726 0.991083C96.0921 0.88598 96.2455 0.827557 96.4045 0.826566H99.5315C99.8365 0.826566 100.066 1.05557 100.142 1.32257V3.95357H100.219C101.172 1.58957 102.469 0.483566 104.795 0.483566C106.283 0.483566 107.77 1.01657 108.723 2.50357C109.601 3.87757 109.601 6.20357 109.601 7.88157V18.7516C109.563 19.0566 109.296 19.2856 108.952 19.2856H105.596C105.291 19.2476 105.024 19.0186 104.986 18.7516V9.37057C104.986 7.46357 105.215 4.71757 102.888 4.71757C102.088 4.71757 101.325 5.25157 100.943 6.09057C100.485 7.15857 100.409 8.18857 100.409 9.37057V18.6766C100.387 18.844 100.306 18.9981 100.18 19.1102C100.054 19.2224 99.8913 19.284 99.7225 19.2856ZM58.3025 19.2476C58.1938 19.3422 58.0582 19.4004 57.9147 19.414C57.7713 19.4277 57.6271 19.396 57.5025 19.3236C56.3965 18.4086 56.1675 17.9506 55.5575 17.0736C53.7275 18.9426 52.3915 19.5136 50.0275 19.5136C47.2055 19.5136 44.9925 17.7596 44.9925 14.2896C44.9925 11.5436 46.4805 9.71257 48.5785 8.79757C50.4085 7.99657 52.9635 7.84357 54.9085 7.61557V7.19557C54.9085 6.39557 54.9855 5.44157 54.4895 4.75557C54.0695 4.14457 53.3075 3.87757 52.6205 3.87757C51.3245 3.87757 50.1805 4.52557 49.9125 5.89857C49.8365 6.20357 49.6455 6.50857 49.3405 6.50857L46.0995 6.16557C45.8325 6.08957 45.5265 5.89857 45.6035 5.47957C46.3645 1.51257 49.9135 0.330566 53.1165 0.330566C54.7565 0.330566 56.8925 0.750566 58.1895 2.00857C59.8295 3.53457 59.6765 5.59357 59.6765 7.80557V13.0306C59.6765 14.5946 60.3245 15.2806 60.9355 16.1586C61.1635 16.4636 61.2015 16.8446 60.9355 17.0356C60.2105 17.6076 58.9885 18.6756 58.3025 19.2476ZM14.2145 19.2476C14.1058 19.3422 13.9702 19.4004 13.8267 19.414C13.6833 19.4277 13.5391 19.396 13.4145 19.3236C12.3085 18.4086 12.0795 17.9506 11.4685 17.0736C9.63854 18.9426 8.30354 19.5136 5.93854 19.5136C3.11654 19.5146 0.904541 17.7606 0.904541 14.2906C0.904541 11.5446 2.39154 9.71357 4.48954 8.79857C6.31954 7.99757 8.87554 7.84457 10.8205 7.61657V7.19657C10.8205 6.39657 10.8965 5.44257 10.4005 4.75657C9.98154 4.14557 9.21854 3.87857 8.53254 3.87857C7.23554 3.87857 6.09154 4.52657 5.82454 5.89957C5.74854 6.20457 5.55754 6.50957 5.25254 6.50957L2.01054 6.16657C1.74354 6.09057 1.43854 5.89857 1.51454 5.48057C2.27754 1.51257 5.82454 0.330566 9.02854 0.330566C10.6685 0.330566 12.8035 0.750566 14.1005 2.00857C15.7405 3.53457 15.5875 5.59357 15.5875 7.80557V13.0306C15.5875 14.5946 16.2365 15.2806 16.8465 16.1586C17.0755 16.4636 17.1135 16.8446 16.8465 17.0356C16.1215 17.6076 14.9015 18.6756 14.2145 19.2476ZM54.9095 11.0476V10.3226C52.4685 10.3226 49.9125 10.8566 49.9125 13.7176C49.9125 15.1666 50.6755 16.1576 51.9725 16.1576C52.9255 16.1576 53.7645 15.5866 54.2985 14.6326C54.9475 13.4506 54.9095 12.3446 54.9095 11.0476ZM10.8595 11.0476V10.3226C8.41754 10.3226 5.86254 10.8566 5.86254 13.7176C5.86254 15.1666 6.62554 16.1576 7.92254 16.1576C8.87554 16.1576 9.71454 15.5866 10.2485 14.6326C10.8965 13.4506 10.8595 12.3446 10.8595 11.0476Z" fill="#4D4D4D"/>
</svg>
