<svg width="125" height="25" viewBox="0 0 125 25" fill="none" xmlns="http://www.w3.org/2000/svg">
<path d="M63.9335 12.3906C62.9115 12.3906 62.1735 12.7156 61.4275 13.0476V20.5536C62.1425 20.6196 62.5525 20.6196 63.2315 20.6196C65.6855 20.6196 66.0215 19.5286 66.0215 18.0046V14.4196C66.0215 13.2946 65.6375 12.3896 63.9335 12.3896V12.3906ZM47.6385 11.9806C45.9365 11.9806 45.5485 12.8886 45.5485 14.0126V14.6446H49.7275V14.0126C49.7275 12.8886 49.3385 11.9806 47.6385 11.9806ZM16.0725 19.7936C16.0725 20.6836 16.5045 21.1446 17.4585 21.1446C18.4815 21.1446 19.0865 20.8206 19.8335 20.4886V18.7076H17.5975C16.5375 18.7076 16.0725 18.8986 16.0725 19.7936ZM79.7835 12.3906C78.0785 12.3906 77.4875 13.2946 77.4875 14.4206V18.5266C77.4875 19.6546 78.0785 20.5616 79.7835 20.5616C81.4835 20.5616 82.0795 19.6546 82.0795 18.5266V14.4206C82.0795 13.2956 81.4835 12.3906 79.7835 12.3906ZM7.71649 24.3986H2.70449V12.6136H0.199493V8.55357H2.70449V6.11357C2.70449 2.80057 4.11949 0.830566 8.13549 0.830566H11.4815V4.89257H9.38949C7.82449 4.89257 7.72149 5.46057 7.72149 6.51957L7.71549 8.55257H11.5025L11.0605 12.6126H7.71649V24.3986ZM24.8465 24.4286H20.6695L20.4895 23.4026C19.0377 24.193 17.4095 24.6034 15.7565 24.5956C12.6925 24.5956 11.0615 22.6076 11.0615 19.8576C11.0615 16.6146 12.9645 15.4566 16.3685 15.4566H19.8335V14.7556C19.8335 13.0996 19.6385 12.6136 17.0165 12.6136H12.7305L13.1495 8.55357H17.8345C23.5855 8.55357 24.8475 10.3176 24.8475 14.7886V24.4286H24.8465ZM39.0535 12.9116C36.4535 12.4786 35.7065 12.3836 34.4565 12.3836C32.2095 12.3836 31.5305 12.8646 31.5305 14.7176V18.2236C31.5305 20.0776 32.2095 20.5606 34.4565 20.5606C35.7065 20.5606 36.4535 20.4646 39.0535 20.0296V23.9906C36.7765 24.4866 35.2935 24.6166 34.0385 24.6166C28.6575 24.6166 26.5185 21.8676 26.5185 17.8966V15.0516C26.5185 11.0776 28.6575 8.32357 34.0385 8.32357C35.2925 8.32357 36.7765 8.45357 39.0535 8.95257V12.9116ZM54.7395 17.8966H45.5475V18.2236C45.5475 20.0776 46.2275 20.5606 48.4725 20.5606C50.4925 20.5606 51.7245 20.4646 54.3195 20.0296V23.9906C51.8165 24.4866 50.5125 24.6166 48.0575 24.6166C42.6755 24.6166 40.5355 21.8676 40.5355 17.8966V14.6436C40.5355 11.1696 42.1235 8.32357 47.6385 8.32357C53.1535 8.32357 54.7385 11.1366 54.7385 14.6436L54.7395 17.8966ZM71.0335 17.9716C71.0335 21.8096 69.9035 24.6096 63.0625 24.6096C60.5925 24.6096 59.1425 24.3996 56.4155 23.9916V2.05057L61.4255 1.23857V8.91357C62.5095 8.52257 63.9105 8.32357 65.1855 8.32357C70.1975 8.32357 71.0325 10.5066 71.0325 14.0136L71.0335 17.9716ZM87.0955 18.0556C87.0955 21.3656 85.6885 24.5776 79.8005 24.5776C73.9095 24.5776 72.4755 21.3666 72.4755 18.0556V14.8586C72.4755 11.5456 73.9095 8.33357 79.8005 8.33357C85.6885 8.33357 87.0955 11.5456 87.0955 14.8586V18.0556ZM103.147 18.0556C103.147 21.3656 101.737 24.5776 95.8515 24.5776C89.9615 24.5776 88.5265 21.3666 88.5265 18.0556V14.8586C88.5265 11.5456 89.9605 8.33357 95.8515 8.33357C101.738 8.33357 103.147 11.5456 103.147 14.8586V18.0556ZM119.62 24.3986H114.188L109.595 16.9496V24.3996H104.582V2.04857L109.595 1.23657V15.6246L114.188 8.55157H119.62L114.605 16.2696L119.62 24.3976V24.3986ZM95.8345 12.3906C94.1315 12.3906 93.5415 13.2946 93.5415 14.4206V18.5266C93.5415 19.6546 94.1315 20.5616 95.8345 20.5616C97.5345 20.5616 98.1355 19.6546 98.1355 18.5266V14.4206C98.1355 13.2956 97.5345 12.3906 95.8345 12.3906ZM122.48 21.6186C123.324 21.6186 123.997 22.2876 123.997 23.1226C123.997 23.9706 123.324 24.6316 122.474 24.6316C122.274 24.6342 122.076 24.5971 121.89 24.5224C121.705 24.4477 121.536 24.337 121.393 24.1965C121.251 24.056 121.138 23.8887 121.061 23.7041C120.983 23.5196 120.944 23.3216 120.943 23.1216C120.943 22.2876 121.628 21.6186 122.474 21.6186H122.48ZM122.474 21.8526C121.794 21.8526 121.238 22.4216 121.238 23.1226C121.238 23.8366 121.795 24.3976 122.48 24.3976C123.167 24.4046 123.715 23.8366 123.715 23.1296C123.715 22.4216 123.167 21.8526 122.48 21.8526H122.474ZM122.186 23.9976H121.911V22.3196C122.055 22.2996 122.193 22.2806 122.399 22.2806C122.66 22.2806 122.831 22.3346 122.936 22.4076C123.037 22.4816 123.092 22.5946 123.092 22.7536C123.092 22.9756 122.942 23.1086 122.757 23.1626V23.1756C122.907 23.2026 123.01 23.3356 123.045 23.5816C123.085 23.8426 123.127 23.9416 123.154 23.9966H122.865C122.825 23.9426 122.783 23.7896 122.749 23.5686C122.709 23.3546 122.597 23.2746 122.377 23.2746H122.187L122.186 23.9976ZM122.186 23.0686H122.386C122.611 23.0686 122.803 22.9886 122.803 22.7806C122.803 22.6336 122.694 22.4876 122.385 22.4876C122.295 22.4876 122.233 22.4936 122.185 22.5006L122.186 23.0686Z" fill="#4D4D4D"/>
</svg>
