<svg width="114" height="31" viewBox="0 0 114 31" fill="none" xmlns="http://www.w3.org/2000/svg">
<path d="M0.0995483 5.83057H4.03955V14.0406H12.3495V5.83057H16.2955V25.9836H12.3495V17.6006H4.03955V25.9836H0.0995483V5.83057ZM28.7775 19.4196V10.7426H32.5135V19.4196C32.5135 23.0396 29.3735 25.9836 25.5135 25.9836C21.6535 25.9836 18.5135 23.0386 18.5135 19.4196V10.7426H22.2495V19.4196C22.2495 21.1066 23.7145 22.4796 25.5135 22.4796C27.3125 22.4796 28.7775 21.1066 28.7775 19.4196ZM42.9445 10.8446C47.1296 10.8446 50.7285 14.1246 50.7285 18.4146C50.7285 22.7586 46.8255 25.9836 42.3715 25.9836C38.3655 25.9836 34.7985 22.8156 34.7985 18.1896V5.83057H38.5485V12.4996C39.7976 11.3496 41.0905 10.8446 42.9445 10.8446ZM43.0375 22.7306C45.1895 22.7306 47.1335 20.7406 47.1335 18.4136C47.1335 16.0866 45.1895 14.0966 43.0375 14.0966C40.4975 14.0966 38.5546 16.0866 38.5546 18.4136C38.5546 20.7406 40.4975 22.7306 43.0375 22.7306ZM57.0245 11.7306C57.0245 15.0106 65.9625 12.6546 65.9625 20.2236C65.9625 23.7286 62.8545 25.9716 58.9985 25.9716C56.4275 25.9716 54.2756 24.9616 52.5406 22.9716L55.2605 20.3366C56.2775 21.4016 56.9955 22.4106 59.2085 22.4106C60.6125 22.4106 61.8375 21.3726 61.8375 20.1966C61.8375 16.3826 52.8995 18.5426 52.8995 11.7306C52.8995 8.05757 55.8295 5.84257 59.8945 5.84257C61.9275 5.84257 64.4075 6.90757 65.6325 8.44957L63.1825 11.1406C62.2265 10.1876 60.7625 9.40257 59.6555 9.40257C58.2805 9.40257 57.0245 9.96257 57.0245 11.7306ZM75.8326 10.6466C80.2856 10.6466 84.1895 13.8706 84.1895 18.2166C84.1895 22.5056 80.5895 25.7856 76.4045 25.7856C74.5506 25.7856 73.2575 25.2796 72.0075 24.1306V30.8306H68.2596V18.4406C68.2596 13.8136 71.8255 10.6466 75.8326 10.6466ZM76.4986 22.5336C78.6506 22.5336 80.5936 20.5416 80.5936 18.2156C80.5936 15.8886 78.6506 13.8986 76.4986 13.8986C73.9585 13.8986 72.0155 15.8886 72.0155 18.2156C72.0155 20.5416 73.9585 22.5336 76.4986 22.5336ZM111.784 22.7306C112.204 22.7306 112.682 22.7026 113.1 22.6756L112.173 25.8716C111.814 25.9546 111.156 25.9836 110.677 25.9836C107.48 25.9836 105.15 24.3846 105.15 21.2166V8.82557L108.945 7.22757V11.2936H112.382V14.3766H108.945V20.4596C108.945 21.8336 109.573 22.7306 111.784 22.7306ZM101.064 14.6056C101.766 15.7026 102.1 16.9006 102.1 18.1986V18.2646C102.1 19.5836 101.685 20.7826 100.93 21.8686C100.18 22.9506 99.1875 23.7986 97.9195 24.4186C96.7229 25.0017 95.4077 25.3008 94.0765 25.2926H93.8515C92.6236 25.2926 91.5015 25.0516 90.4846 24.6556C89.984 24.4647 89.5022 24.2276 89.0455 23.9476L85.8075 26.8606C85.8846 27.0796 85.9245 27.3106 85.9245 27.5456C85.9222 27.852 85.8548 28.1545 85.7267 28.433C85.5986 28.7114 85.4128 28.9594 85.1815 29.1606C84.686 29.5984 84.0458 29.8371 83.3846 29.8306C82.7236 29.8371 82.0837 29.5983 81.5885 29.1606C81.1085 28.7296 80.8446 28.1566 80.8446 27.5456C80.8467 27.2391 80.9141 26.9365 81.0422 26.6581C81.1703 26.3796 81.3562 26.1316 81.5875 25.9306C82.2855 25.2996 83.3285 25.0936 84.2555 25.4036L87.3885 22.5796C86.8734 22.0185 86.4596 21.3722 86.1656 20.6696C85.829 19.8585 85.6537 18.9897 85.6496 18.1116V17.8426C85.6496 16.5566 86.1096 15.3766 86.8635 14.3046C87.2447 13.7789 87.6936 13.3058 88.1985 12.8976L78.7596 6.78057L78.0725 6.31157C77.5553 6.59368 76.9757 6.74185 76.3866 6.74257C74.5695 6.74257 73.0995 5.41857 73.0995 3.78657C73.0995 2.15357 74.5695 0.830566 76.3846 0.830566C78.2006 0.830566 79.6705 2.15357 79.6705 3.78657C79.6705 4.05857 79.6105 4.31657 79.5335 4.56657C82.7885 6.78857 88.3535 10.5916 90.0505 11.7506C90.8823 11.3775 91.7644 11.1289 92.6685 11.0126V7.49957C91.5715 7.07957 90.9305 6.15357 90.9305 5.07157C90.9305 3.59757 92.2675 2.40357 93.9065 2.40357C95.5435 2.40357 96.8586 3.59757 96.8586 5.07157C96.8586 6.15357 96.1786 7.08057 95.0806 7.49957V11.0106C96.1327 11.1348 97.1529 11.4524 98.0895 11.9476C99.3455 12.6146 100.35 13.5006 101.064 14.6056ZM97.1076 20.7156C97.8726 19.9596 98.2555 19.1256 98.2555 18.2256C98.2555 18.0896 98.2495 17.9486 98.2375 17.8106C98.16 17.1469 97.9131 16.5143 97.5205 15.9736C97.1055 15.4112 96.5561 14.9618 95.9225 14.6666C95.2825 14.3716 94.6046 14.2446 93.8885 14.2446H93.8145C93.0245 14.2446 92.3146 14.4376 91.6516 14.8316C91.0049 15.1978 90.4662 15.7279 90.0895 16.3686C89.7375 16.9546 89.5975 17.5766 89.5975 18.2316V18.4336C89.5975 19.0996 89.8435 19.7286 90.2955 20.3036C90.7336 20.8906 91.2695 21.3536 91.9735 21.6786C92.5975 21.9736 93.2355 22.1356 93.8885 22.1356H94.0765C95.2185 22.1356 96.2286 21.5946 97.1076 20.7156Z" fill="#4D4D4D"/>
</svg>
