<svg width="84" height="31" viewBox="0 0 84 31" fill="none" xmlns="http://www.w3.org/2000/svg">
<path d="M12.6855 0.830566C12.8855 0.923566 13.0115 1.11557 13.1715 1.26757C13.4315 1.49257 13.6235 1.79057 13.8765 2.02257C14.1885 2.32057 14.3885 2.69757 14.6475 3.03557C15.0995 3.71757 15.4985 4.44557 15.7045 5.24057C15.9175 5.78257 15.9505 6.37257 15.9375 6.95457C15.9505 7.48457 15.8045 8.00757 15.5655 8.48457C15.1525 9.20557 14.4085 9.68957 13.6305 9.94757C12.6595 10.1796 11.5885 10.2196 10.6505 9.80857C10.3125 9.62357 9.92648 9.49757 9.65348 9.20557C9.02248 8.68957 8.65648 7.84857 8.77648 7.03457C8.96248 5.58457 9.83348 4.33957 10.7645 3.26757C10.8505 3.42557 10.7775 3.61157 10.8375 3.77757C10.9175 4.12757 11.0435 4.49857 11.3095 4.75057C11.6355 4.45257 11.9815 4.15457 12.2595 3.81057C12.5135 3.43957 12.7195 3.02857 12.8055 2.59157C12.8255 2.03557 12.8785 1.45257 12.6655 0.923566L12.6855 0.830566ZM0.504481 7.44457C2.06048 7.45857 3.62248 7.43157 5.17848 7.45857C5.17848 9.00057 5.19248 10.5436 5.17248 12.0866C6.27648 12.1066 7.37948 12.0926 8.49048 12.0926C8.50348 12.2126 8.51048 12.3316 8.51048 12.4506C8.49648 13.7216 8.51648 14.9866 8.49648 16.2576C7.38648 16.2706 6.28248 16.2576 5.17248 16.2636C5.19248 18.5486 5.16548 20.8256 5.18548 23.1096C5.22548 23.3096 5.25248 23.5076 5.24548 23.7126C5.22548 23.8976 5.33848 24.0506 5.37848 24.2226C5.46448 24.6196 5.68448 24.9776 5.93648 25.2886C6.30948 25.6586 6.78748 25.9176 7.29948 26.0296C7.76548 26.1026 8.23048 26.1426 8.70348 26.1096C8.72948 26.1896 8.74348 26.2686 8.74348 26.3546C8.73683 27.5439 8.73683 28.7332 8.74348 29.9226C8.74348 30.0886 8.70948 30.2536 8.68348 30.4126C8.01148 30.4126 7.33948 30.4596 6.66848 30.4126C6.26848 30.3266 5.84348 30.3666 5.45848 30.1946C4.38848 29.9426 3.36348 29.4136 2.59848 28.6116C1.47648 27.5326 0.871481 26.0106 0.625481 24.5006C0.558481 24.3346 0.598481 24.1426 0.571481 23.9646C0.478481 23.5996 0.518481 23.2156 0.505481 22.8446C0.498865 17.7112 0.498865 12.5779 0.505481 7.44457H0.504481ZM23.2185 11.7346C23.4975 11.6626 23.7965 11.7146 24.0755 11.6556C24.6615 11.5826 25.2395 11.6756 25.8185 11.6956C26.2235 11.6886 26.6155 11.8086 27.0145 11.8876C28.4975 12.2456 29.9005 13.0326 30.9185 14.1846C31.0985 14.4826 31.3705 14.7016 31.5425 15.0056C31.9755 15.6876 32.2615 16.4496 32.5075 17.2176C32.6605 17.7806 32.7395 18.3626 32.8135 18.9386C32.8465 20.2166 32.8265 21.5016 32.8335 22.7786C32.8265 25.3286 32.8395 27.8776 32.8265 30.4266C31.2705 30.4066 29.7215 30.4196 28.1715 30.4126C28.1499 30.3994 28.1298 30.3839 28.1115 30.3666C28.1055 26.7976 28.1115 23.2296 28.1115 19.6666C28.1185 19.2306 28.0385 18.8066 27.9455 18.3896C27.788 17.9645 27.5613 17.5685 27.2745 17.2176C27.1015 17.0126 26.8625 16.8796 26.6695 16.7006C26.3695 16.5026 26.0175 16.4106 25.6785 16.3166C25.4985 16.3036 25.3185 16.3166 25.1535 16.2566C24.4415 16.2106 23.7165 16.2706 23.0515 16.5426C22.5665 16.7736 22.1145 17.0916 21.7955 17.5356C21.2695 18.1576 21.0975 19.0056 21.1105 19.7996C21.1105 23.3356 21.1175 26.8776 21.1105 30.4126C19.5405 30.4266 17.9715 30.4066 16.4025 30.4266C16.3765 27.0166 16.4025 23.5996 16.3895 20.1906C16.3965 19.7536 16.3825 19.3166 16.4165 18.8796C16.5025 18.6606 16.4425 18.4226 16.5095 18.2096C16.6295 17.4026 16.9345 16.6346 17.2735 15.8996C17.6065 15.2576 18.0055 14.6416 18.5235 14.1316C18.9295 13.7216 19.3485 13.2916 19.8605 13.0066C20.8505 12.3176 22.0205 11.8996 23.2185 11.7346ZM78.9385 11.6956C79.5175 11.6826 80.0885 11.5696 80.6685 11.6626C80.9805 11.7026 81.2985 11.6956 81.6115 11.7086C81.6715 12.2846 81.6255 12.8676 81.6385 13.4436V15.7606C81.6385 15.9066 81.6585 16.0586 81.5985 16.1976C81.4455 16.0856 81.2395 16.1246 81.0665 16.0786C80.3615 16.0186 79.6365 16.0526 78.9725 16.3166C78.1689 16.5911 77.5004 17.1619 77.1035 17.9126C76.9905 18.0526 76.9905 18.2506 76.8635 18.3826C76.6585 19.1246 76.6445 19.8986 76.6585 20.6606C76.6515 23.9176 76.6785 27.1686 76.6445 30.4266C75.0945 30.4066 73.5395 30.4266 71.9845 30.4126C71.9705 30.3996 71.9505 30.3726 71.9375 30.3596V19.7336C71.9175 19.2896 72.0175 18.8596 72.0105 18.4226C72.1165 18.2106 72.0905 17.9656 72.1565 17.7476C72.4885 16.0716 73.3735 14.4896 74.7165 13.4106C74.9765 13.1196 75.3485 12.9806 75.6545 12.7486C76.6445 12.1456 77.7945 11.8546 78.9385 11.6956ZM10.0195 12.0856C11.5895 12.1126 13.1575 12.0796 14.7275 12.0996C14.7275 18.1576 14.7205 24.2096 14.7275 30.2606C14.7275 30.3206 14.7275 30.4396 14.6345 30.4196H10.0325C9.99248 29.4196 10.0265 28.4136 10.0125 27.4136C10.0195 22.3086 10.0125 17.1966 10.0195 12.0856ZM59.2575 24.3756C59.6565 24.2226 60.0415 24.0236 60.4475 23.8856C61.0325 23.6596 61.6045 23.3886 62.1895 23.1636C63.3995 22.6066 64.6495 22.1436 65.8735 21.6206C66.1655 21.4606 66.4985 21.3886 66.7835 21.2166C67.1095 21.0906 67.4355 20.9786 67.7545 20.8326C68.0345 20.6666 68.3535 20.6006 68.6395 20.4556C69.0185 20.3026 69.3835 20.1306 69.7695 19.9916C70.1615 19.7736 70.6005 19.6676 70.9925 19.4556C71.0995 19.3826 71.2725 19.4026 71.3385 19.2766C71.2255 19.1176 71.2855 18.9186 71.2255 18.7466C71.1395 18.4366 71.0525 18.1316 70.9795 17.8266C70.6805 16.9066 70.2485 16.0266 69.6635 15.2576C68.9515 14.2316 67.9735 13.4036 66.8905 12.7946C66.1785 12.3646 65.3805 12.1196 64.5835 11.9076C64.0915 11.8476 63.6185 11.6756 63.1205 11.6826C62.6685 11.6226 62.2025 11.5966 61.7575 11.6756C60.9655 11.6886 60.2075 11.8806 59.4575 12.0996C58.1475 12.5566 56.9035 13.2516 55.8995 14.2116C55.5995 14.4896 55.3535 14.8146 55.0685 15.0986C54.6225 15.6686 54.2165 16.2706 53.9115 16.9196C53.4785 17.8926 53.0665 18.9126 53.0205 19.9916C52.8735 20.5086 52.9205 21.0516 52.9135 21.5816C52.9005 21.9186 52.9535 22.2496 53.0205 22.5736C53.0005 22.9176 53.1335 23.2356 53.1805 23.5666C53.2925 24.2686 53.6055 24.9176 53.8905 25.5666C54.6755 27.1686 55.9125 28.5596 57.4615 29.4666C58.4795 30.0886 59.6095 30.5326 60.7935 30.6976C61.7575 30.8496 62.7475 30.8766 63.7185 30.7506C64.0515 30.7776 64.3705 30.6306 64.7025 30.6116C66.1195 30.2806 67.5085 29.6846 68.5795 28.6846C68.8985 28.4336 69.1975 28.1346 69.4495 27.8176C69.8755 27.3876 70.1815 26.8646 70.4875 26.3476C70.7805 25.7976 71.0195 25.2156 71.1925 24.6126C71.0995 24.5726 70.9925 24.5866 70.9005 24.5866C69.3445 24.5936 67.7945 24.5796 66.2385 24.5866C66.0925 24.5866 66.0925 24.7856 65.9995 24.8646C65.7335 25.2486 65.3945 25.5726 65.0355 25.8776C64.5165 26.2476 63.9055 26.4476 63.2995 26.6256C63.1395 26.6456 62.9875 26.6386 62.8415 26.6986C62.4685 26.7256 62.0895 26.7116 61.7115 26.7056C61.2915 26.6256 60.8725 26.5336 60.4675 26.4006C59.8425 26.0826 59.2305 25.7186 58.7585 25.2026C58.6385 25.0566 58.4465 24.9446 58.4065 24.7526C58.5125 24.7056 58.6125 24.6326 58.7315 24.6126C58.9245 24.5796 59.0715 24.4286 59.2575 24.3756ZM57.3425 21.0246C57.2495 20.7926 57.3355 20.5216 57.3225 20.2766C57.4285 19.9386 57.4625 19.5816 57.5885 19.2436C57.9075 18.4956 58.2995 17.7606 58.8715 17.1706C59.1375 16.9526 59.3635 16.6876 59.6695 16.5226C59.8955 16.4026 60.1145 16.2706 60.3475 16.1646C60.7795 16.0386 61.1985 15.8406 61.6505 15.8406C62.0635 15.7406 62.4885 15.7936 62.9075 15.8006C64.0045 15.9526 65.1085 16.4226 65.8195 17.2906C65.8935 17.4626 65.6475 17.4756 65.5475 17.5416C65.1155 17.7806 64.6295 17.8996 64.1975 18.1446C64.0045 18.1776 63.8375 18.2966 63.6525 18.3566C62.2755 18.9526 60.8725 19.4756 59.5095 20.0976C58.7785 20.3826 58.0535 20.6876 57.3425 21.0246ZM52.3885 3.99457C50.9325 3.98257 49.4765 3.99457 48.0195 3.98857C47.9135 4.00157 47.7875 3.95557 47.7005 4.03557C47.7145 7.14657 47.7005 10.2656 47.7075 13.3776C47.7005 13.4896 47.7275 13.6026 47.6805 13.7076C47.5475 13.6876 47.4805 13.5626 47.3815 13.4896C46.7105 12.9136 45.9585 12.4236 45.1215 12.1396C44.5555 11.9206 43.9635 11.8086 43.3655 11.7026C42.6875 11.6886 42.0025 11.6686 41.3175 11.7086C41.2445 11.7286 41.1775 11.7486 41.1045 11.7556C39.5825 11.9666 38.1595 12.6756 36.9885 13.6486C36.3375 14.2586 35.6855 14.8936 35.2265 15.6616C34.6885 16.4226 34.3425 17.2966 34.0105 18.1576C33.8575 18.7006 33.7045 19.2376 33.6375 19.7926C33.5115 20.6466 33.5645 21.5206 33.5775 22.3826C33.6115 22.6066 33.6845 22.8186 33.6905 23.0436C33.8122 23.7749 34.0221 24.4887 34.3155 25.1696C34.5615 25.8246 34.9605 26.4206 35.3265 27.0166C35.5865 27.3466 35.8385 27.6916 36.1505 27.9826C36.6165 28.4396 37.0755 28.9366 37.6605 29.2546C38.3515 29.7776 39.1705 30.0886 39.9675 30.3936C40.2605 30.4456 40.5325 30.6116 40.8315 30.6186C41.0845 30.6386 41.3175 30.7576 41.5705 30.7436C41.7035 30.7306 41.8225 30.8236 41.9625 30.8106C42.6075 30.8306 43.2585 30.8306 43.9035 30.8106C44.0105 30.8106 44.1165 30.7636 44.2295 30.7576C44.6755 30.7636 45.0875 30.5916 45.5195 30.5316C46.0845 30.3266 46.6895 30.1946 47.2155 29.8896C47.9935 29.5326 48.6975 29.0296 49.3295 28.4596C50.1251 27.7616 50.7778 26.916 51.2515 25.9696C51.4575 25.5536 51.6905 25.1496 51.8235 24.6996C52.0755 24.0766 52.1885 23.4146 52.2755 22.7596C52.4215 22.1826 52.3755 21.5806 52.3885 20.9846V3.99457ZM47.6605 21.9246C47.6205 22.6266 47.3555 23.2946 47.0425 23.9246C46.5175 24.9106 45.6325 25.6656 44.6285 26.1426C44.4755 26.2226 44.2765 26.2156 44.1705 26.3606C43.9835 26.3606 43.7975 26.3676 43.6185 26.4336C43.0465 26.4476 42.4545 26.4996 41.8955 26.3416C41.6565 26.2286 41.3905 26.1816 41.1515 26.0566C40.8515 25.8906 40.5125 25.7786 40.2665 25.5266C39.8015 25.2026 39.4425 24.7586 39.1165 24.3016C38.8565 23.8586 38.5975 23.4016 38.4785 22.8986C38.3455 22.6336 38.3585 22.3356 38.2855 22.0576C38.2655 21.3486 38.2255 20.6206 38.3915 19.9316C38.4655 19.7136 38.5115 19.4816 38.5915 19.2636C38.7845 18.9126 38.9035 18.5216 39.1565 18.2036C39.2895 17.9256 39.5225 17.7206 39.7085 17.4826C40.2075 16.9126 40.8925 16.5486 41.5835 16.2636C41.8435 16.2046 42.0955 16.0726 42.3685 16.0726C42.9205 15.9326 43.4915 16.0456 44.0375 16.1446C44.7555 16.4036 45.4675 16.7606 46.0255 17.2906C46.2315 17.4826 46.3845 17.7206 46.5905 17.9126C47.4458 19.0645 47.8285 20.4997 47.6605 21.9246ZM78.8995 28.0956H80.6425C80.6485 28.2276 80.6485 28.3606 80.6425 28.4926C80.4425 28.5196 80.2425 28.4866 80.0505 28.5126C80.0235 29.1086 80.0505 29.6976 80.0375 30.2936C79.8604 30.2817 79.6828 30.2797 79.5055 30.2876C79.4855 29.8176 79.4915 29.3406 79.4985 28.8706C79.4985 28.7446 79.5255 28.5986 79.4115 28.5126C79.2395 28.4866 79.0665 28.5196 78.8935 28.4926C78.8855 28.3603 78.8875 28.2276 78.8995 28.0956ZM80.9615 28.1026C81.2075 28.0956 81.4535 28.0826 81.6995 28.1156C81.6865 28.3076 81.8455 28.4396 81.8925 28.6186C81.9585 28.8436 82.0585 29.0556 82.1245 29.2806C82.1785 29.3806 82.2715 29.4666 82.2375 29.5916C82.3705 29.0756 82.5775 28.5856 82.7835 28.1016C83.0204 28.0916 83.2576 28.0916 83.4945 28.1016C83.5075 28.8106 83.4945 29.5316 83.4945 30.2416C83.3331 30.2548 83.1709 30.2548 83.0095 30.2416C83.0155 29.7446 83.0095 29.2476 83.0225 28.7576C82.9625 28.8106 82.9025 28.8576 82.8565 28.9236C82.7695 29.3736 82.5365 29.7836 82.4245 30.2336C82.2915 30.2536 82.1645 30.2536 82.0315 30.2406C81.9915 29.9896 81.8115 29.7836 81.8115 29.5256C81.6325 29.3076 81.6265 28.9956 81.4865 28.7516C81.3935 28.9296 81.4665 29.1416 81.4465 29.3336C81.4205 29.6446 81.4795 29.9636 81.4205 30.2736C81.2605 30.2736 81.0805 30.3266 80.9545 30.2136C80.9745 29.5126 80.9545 28.8106 80.9615 28.1026Z" fill="#4D4D4D"/>
</svg>
